<?xml version="1.0" encoding="utf-8"?>
<!-- Generator: Adobe Illustrator 16.0.0, SVG Export Plug-In . SVG Version: 6.00 Build 0)  -->
<!DOCTYPE svg PUBLIC "-//W3C//DTD SVG 1.1//EN" "http://www.w3.org/Graphics/SVG/1.1/DTD/svg11.dtd">
<svg version="1.1" id="Layer_1" xmlns:sketch="http://www.bohemiancoding.com/sketch/ns"
	 xmlns="http://www.w3.org/2000/svg" xmlns:xlink="http://www.w3.org/1999/xlink" x="0px" y="0px" width="16px" height="32px"
	 viewBox="4 176.4 16 32" enable-background="new 4 176.4 16 32" xml:space="preserve">
<title></title>
<desc></desc>
<g id="miu">
	<g id="Artboard-1" transform="translate(-611.000000, -155.000000)">
		<g id="slice" transform="translate(215.000000, 119.000000)">
		</g>
		<path id="circle-close-delete-remove-glyph" d="M623,346.9c4.143,0,7.5-3.357,7.5-7.5s-3.357-7.5-7.5-7.5s-7.5,3.357-7.5,7.5
			S618.857,346.9,623,346.9z M620.232,342.628l-0.461-0.461l2.768-2.767l-2.768-2.767l0.461-0.461l2.768,2.767l2.767-2.767
			l0.461,0.461l-2.767,2.767l2.767,2.767l-0.461,0.461L623,339.861L620.232,342.628z"/>
	</g>
</g>
<g id="miu_1_">
	<g id="Artboard-1_1_" transform="translate(-611.000000, -155.000000)">
		<g id="slice_1_" transform="translate(215.000000, 119.000000)">
		</g>
		<path id="circle-close-delete-remove-glyph_1_" fill="#FF0000" d="M623,362.9c4.143,0,7.5-3.357,7.5-7.5s-3.357-7.5-7.5-7.5
			s-7.5,3.357-7.5,7.5S618.857,362.9,623,362.9z M620.232,358.628l-0.461-0.461l2.768-2.767l-2.768-2.767l0.461-0.461l2.768,2.767
			l2.767-2.767l0.461,0.461l-2.767,2.767l2.767,2.767l-0.461,0.461L623,355.861L620.232,358.628z"/>
	</g>
</g>
</svg>
