<?xml version="1.0" encoding="utf-8"?>
<!-- Generator: Adobe Illustrator 16.0.0, SVG Export Plug-In . SVG Version: 6.00 Build 0)  -->
<!DOCTYPE svg PUBLIC "-//W3C//DTD SVG 1.1//EN" "http://www.w3.org/Graphics/SVG/1.1/DTD/svg11.dtd">
<svg version="1.1" id="Laag_1" xmlns="http://www.w3.org/2000/svg" xmlns:xlink="http://www.w3.org/1999/xlink" x="0px" y="0px"
	 width="16px" height="32px" viewBox="0 0 16 32" enable-background="new 0 0 16 32" xml:space="preserve">
<path fill="#B3B3B3" d="M8,2.174c-3.219,0-5.827,2.609-5.827,5.827S4.783,13.826,8,13.826c3.218,0,5.826-2.607,5.826-5.825
	S11.219,2.174,8,2.174z M11.438,9H4.563V7h6.874V9z"/>
<linearGradient id="SVGID_1_" gradientUnits="userSpaceOnUse" x1="-122.3267" y1="800" x2="-110.6738" y2="800" gradientTransform="matrix(1 0 0 1 124.5 -776)">
	<stop  offset="0" style="stop-color:#FF1D25"/>
	<stop  offset="1" style="stop-color:#D7002E"/>
</linearGradient>
<path fill="url(#SVGID_1_)" d="M8,18.174c-3.219,0-5.827,2.609-5.827,5.827S4.783,29.826,8,29.826c3.218,0,5.826-2.607,5.826-5.825
	S11.219,18.174,8,18.174z M11.438,25H4.563v-2h6.874V25z"/>
</svg>
