<?xml version="1.0" encoding="utf-8"?>
<!-- Generator: Adobe Illustrator 16.0.0, SVG Export Plug-In . SVG Version: 6.00 Build 0)  -->
<!DOCTYPE svg PUBLIC "-//W3C//DTD SVG 1.1//EN" "http://www.w3.org/Graphics/SVG/1.1/DTD/svg11.dtd">
<svg version="1.1" id="Laag_1" xmlns="http://www.w3.org/2000/svg" xmlns:xlink="http://www.w3.org/1999/xlink" x="0px" y="0px"
	 width="16px" height="96px" viewBox="0 0 16 96" enable-background="new 0 0 16 96" xml:space="preserve">
<path fill="#B3B3B3" d="M8,66.174c-3.219,0-5.827,2.609-5.827,5.827S4.782,77.826,8,77.826c3.218,0,5.826-2.607,5.826-5.825
	S11.219,66.174,8,66.174z M11.438,73H4.563v-2h6.875V73z"/>
<linearGradient id="SVGID_5_" gradientUnits="userSpaceOnUse" x1="2.1733" y1="88" x2="13.8262" y2="88">
	<stop  offset="0" style="stop-color:#FF1D25"/>
	<stop  offset="1" style="stop-color:#D7002E"/>
</linearGradient>
<path fill="url(#SVGID_5_)" d="M8,82.174c-3.219,0-5.827,2.609-5.827,5.827S4.782,93.826,8,93.826c3.218,0,5.826-2.607,5.826-5.825
	S11.219,82.174,8,82.174z M11.438,89H4.563v-2h6.875V89z"/>
</svg>
