<?xml version="1.0" encoding="utf-8"?>
<!-- Generator: Adobe Illustrator 16.0.0, SVG Export Plug-In . SVG Version: 6.00 Build 0)  -->
<!DOCTYPE svg PUBLIC "-//W3C//DTD SVG 1.1//EN" "http://www.w3.org/Graphics/SVG/1.1/DTD/svg11.dtd">
<svg version="1.1" id="Laag_1" xmlns="http://www.w3.org/2000/svg" xmlns:xlink="http://www.w3.org/1999/xlink" x="0px" y="0px"
	 width="16px" height="16px" viewBox="0 0 16 16" enable-background="new 0 0 16 16" xml:space="preserve">
<linearGradient id="SVGID_3_" gradientUnits="userSpaceOnUse" x1="0.207" y1="8" x2="15.792" y2="8">
	<stop  offset="0" style="stop-color:#FBB03B"/>
	<stop  offset="1" style="stop-color:#FF942D"/>
</linearGradient>
<path fill="url(#SVGID_3_)" d="M8.367,0.814l1.984,4.691l5.074,0.434c0.352,0.031,0.496,0.473,0.227,0.703l-3.848,3.336l1.152,4.961
	c0.082,0.344-0.293,0.617-0.594,0.434L8,12.74l-4.363,2.633c-0.301,0.18-0.676-0.09-0.594-0.434l1.152-4.961L0.344,6.642
	C0.078,6.408,0.223,5.97,0.574,5.939l5.074-0.434l1.985-4.691C7.769,0.486,8.23,0.486,8.367,0.814L8.367,0.814z M8.367,0.814"/>
</svg>
